<?xml version="1.0" encoding="UTF-8"?>
<svg xmlns="http://www.w3.org/2000/svg" xmlns:xlink="http://www.w3.org/1999/xlink" width="375pt" height="374.999991pt" viewBox="0 0 375 374.999991" version="1.2">
<defs>
<clipPath id="clip1">
  <path d="M 148.644531 178 L 226.644531 178 L 226.644531 219 L 148.644531 219 Z M 148.644531 178 "/>
</clipPath>
<clipPath id="clip2">
  <path d="M 179 133.046875 L 194 133.046875 L 194 151 L 179 151 Z M 179 133.046875 "/>
</clipPath>
<clipPath id="clip3">
  <path d="M 148.644531 162 L 163 162 L 163 182 L 148.644531 182 Z M 148.644531 162 "/>
</clipPath>
<clipPath id="clip4">
  <path d="M 148.644531 160 L 158 160 L 158 181 L 148.644531 181 Z M 148.644531 160 "/>
</clipPath>
<clipPath id="clip5">
  <path d="M 210 162 L 226.644531 162 L 226.644531 182 L 210 182 Z M 210 162 "/>
</clipPath>
</defs>
<g id="surface1">
<rect x="0" y="0" width="375" height="374.999991" style="fill:rgb(100%,100%,100%);fill-opacity:1;stroke:none;"/>
<rect x="0" y="0" width="375" height="374.999991" style="fill:rgb(100%,100%,100%);fill-opacity:1;stroke:none;"/>
<rect x="0" y="0" width="375" height="374.999991" style="fill:rgb(100%,100%,100%);fill-opacity:1;stroke:none;"/>
<g clip-path="url(#clip1)" clip-rule="nonzero">
<path style=" stroke:none;fill-rule:nonzero;fill:rgb(32.939148%,32.939148%,32.939148%);fill-opacity:1;" d="M 148.753906 179.90625 C 148.769531 187.878906 151.257812 195.769531 155.933594 202.265625 C 160.515625 208.636719 166.964844 213.535156 174.375 216.230469 C 182 219.003906 190.519531 219.292969 198.328125 217.09375 C 205.851562 214.976562 212.679688 210.558594 217.660156 204.574219 C 222.773438 198.433594 225.878906 190.855469 226.511719 182.910156 C 226.589844 181.910156 226.628906 180.90625 226.628906 179.90625 C 226.632812 178.617188 224.617188 178.613281 224.613281 179.90625 C 224.59375 187.496094 222.222656 194.925781 217.800781 201.125 C 213.539062 207.105469 207.40625 211.777344 200.476562 214.300781 C 193.164062 216.957031 185.082031 217.273438 177.589844 215.164062 C 170.40625 213.140625 163.964844 208.921875 159.199219 203.21875 C 154.40625 197.480469 151.460938 190.257812 150.882812 182.828125 C 150.808594 181.855469 150.773438 180.878906 150.773438 179.90625 C 150.769531 178.617188 148.75 178.613281 148.753906 179.90625 "/>
</g>
<g clip-path="url(#clip2)" clip-rule="nonzero">
<path style=" stroke:none;fill-rule:nonzero;fill:rgb(32.939148%,32.939148%,32.939148%);fill-opacity:1;" d="M 191.078125 144.757812 C 190.632812 145.792969 190.019531 146.816406 189.066406 147.464844 C 188.074219 148.144531 186.847656 148.328125 185.679688 148.066406 C 183.261719 147.527344 181.550781 145.292969 181.367188 142.878906 C 181.199219 140.65625 182.199219 138.039062 184.007812 136.640625 C 185.851562 135.214844 188.246094 135.886719 189.773438 137.421875 C 191.832031 139.5 192.039062 142.378906 190.976562 145 C 190.773438 145.5 191.199219 146.097656 191.679688 146.230469 C 192.257812 146.386719 192.71875 146.035156 192.921875 145.53125 C 194.175781 142.441406 193.792969 139.019531 191.609375 136.453125 C 189.664062 134.164062 186.394531 133.046875 183.609375 134.515625 C 181.003906 135.894531 179.433594 139.234375 179.335938 142.058594 C 179.222656 145.261719 181.082031 148.449219 184.113281 149.671875 C 185.816406 150.359375 187.785156 150.363281 189.449219 149.558594 C 191.019531 148.800781 192.148438 147.335938 192.820312 145.769531 C 193.03125 145.273438 192.96875 144.699219 192.457031 144.402344 C 192.035156 144.152344 191.292969 144.257812 191.078125 144.757812 "/>
</g>
<path style=" stroke:none;fill-rule:nonzero;fill:rgb(32.939148%,32.939148%,32.939148%);fill-opacity:1;" d="M 187.179688 149.515625 C 187.410156 152.847656 190.636719 153.761719 193.316406 154.714844 C 195.839844 155.613281 198.199219 156.683594 199.898438 158.78125 C 199.914062 158.796875 199.9375 158.820312 200.011719 158.9375 C 200.066406 159.015625 200.117188 159.097656 200.167969 159.179688 C 200.222656 159.273438 200.277344 159.371094 200.328125 159.46875 C 200.347656 159.507812 200.367188 159.550781 200.386719 159.59375 C 200.511719 159.863281 200.355469 159.496094 200.414062 159.660156 C 200.585938 160.113281 200.6875 160.585938 200.765625 161.0625 C 200.988281 162.425781 201.0625 163.988281 201.214844 165.425781 C 201.632812 169.328125 202.082031 173.269531 203.1875 177.054688 C 204.382812 181.152344 206.398438 184.917969 209.152344 188.1875 C 209.503906 188.601562 210.21875 188.546875 210.582031 188.1875 C 210.996094 187.777344 210.929688 187.1875 210.582031 186.769531 C 208.265625 184.027344 206.519531 180.847656 205.414062 177.441406 C 204.234375 173.789062 203.742188 169.976562 203.316406 166.175781 C 203.140625 164.585938 203.03125 162.984375 202.832031 161.398438 C 202.703125 160.335938 202.523438 159.285156 202.003906 158.332031 C 200.925781 156.34375 198.75 154.855469 196.738281 153.933594 C 195.109375 153.191406 193.398438 152.691406 191.734375 152.035156 C 190.574219 151.578125 189.292969 150.890625 189.199219 149.515625 C 189.113281 148.234375 187.09375 148.226562 187.179688 149.515625 "/>
<path style=" stroke:none;fill-rule:nonzero;fill:rgb(32.939148%,32.939148%,32.939148%);fill-opacity:1;" d="M 173.898438 161.84375 C 174.039062 165.351562 173.667969 168.847656 172.777344 172.246094 C 172.351562 173.875 171.785156 175.457031 171.214844 177.039062 C 170.722656 178.40625 170.191406 179.78125 169.359375 180.980469 C 168.625 182.039062 167.378906 182.667969 166.285156 183.285156 C 165.058594 183.976562 163.90625 184.703125 162.800781 185.570312 C 160.46875 187.394531 158.164062 189.746094 157.511719 192.722656 C 156.886719 195.5625 157.777344 198.523438 160.234375 200.21875 C 162.796875 201.984375 166.363281 201.992188 169.285156 201.257812 C 171.855469 200.609375 174.316406 199.289062 176.625 198.03125 C 179.375 196.527344 182.03125 194.871094 184.691406 193.21875 C 187.441406 191.507812 190.191406 189.78125 193.066406 188.285156 C 195.996094 186.765625 199.050781 185.503906 202.183594 184.460938 C 203.410156 184.054688 202.882812 182.121094 201.648438 182.53125 C 196.277344 184.316406 191.3125 186.804688 186.496094 189.742188 C 181.4375 192.832031 176.457031 196.335938 170.933594 198.574219 C 168.546875 199.542969 165.886719 200.085938 163.335938 199.421875 C 162.011719 199.074219 160.753906 198.375 160.03125 197.1875 C 159.414062 196.171875 159.222656 194.960938 159.359375 193.792969 C 159.699219 190.972656 161.945312 188.792969 164.070312 187.109375 C 165.132812 186.265625 166.277344 185.597656 167.457031 184.925781 C 168.566406 184.296875 169.746094 183.628906 170.589844 182.660156 C 171.671875 181.414062 172.320312 179.820312 172.894531 178.300781 C 173.511719 176.664062 174.109375 175.007812 174.578125 173.324219 C 175.613281 169.597656 176.070312 165.707031 175.917969 161.84375 C 175.867188 160.558594 173.847656 160.550781 173.898438 161.84375 "/>
<path style=" stroke:none;fill-rule:nonzero;fill:rgb(32.939148%,32.939148%,32.939148%);fill-opacity:1;" d="M 202.941406 183.253906 C 202.65625 181.996094 201.488281 181.210938 200.28125 180.9375 C 198.867188 180.617188 197.515625 180.957031 196.160156 181.371094 C 195.445312 181.585938 194.71875 181.828125 193.972656 181.882812 C 193.136719 181.941406 192.3125 181.816406 191.496094 181.671875 C 189.980469 181.402344 188.46875 181.121094 186.933594 181.40625 C 185.476562 181.675781 184.464844 182.53125 183.628906 183.699219 C 183.285156 184.171875 182.972656 184.703125 182.5 185.0625 C 181.960938 185.476562 181.230469 185.605469 180.570312 185.660156 C 179.125 185.777344 177.6875 185.734375 176.242188 185.933594 C 174.832031 186.128906 173.445312 186.460938 172.101562 186.933594 C 169.027344 188.019531 166.191406 189.769531 163.96875 192.148438 C 163.085938 193.09375 164.507812 194.511719 165.394531 193.566406 C 167.160156 191.675781 169.339844 190.195312 171.738281 189.207031 C 174.273438 188.164062 176.882812 187.777344 179.605469 187.707031 C 180.910156 187.671875 182.324219 187.578125 183.441406 186.839844 C 184.519531 186.132812 184.996094 184.980469 185.875 184.097656 C 186.746094 183.222656 188.097656 183.210938 189.25 183.324219 C 190.753906 183.476562 192.222656 183.945312 193.75 183.894531 C 195.421875 183.839844 196.890625 183.058594 198.515625 182.832031 C 199.320312 182.71875 200.777344 182.828125 200.996094 183.789062 C 201.277344 185.046875 203.226562 184.511719 202.941406 183.253906 "/>
<path style=" stroke:none;fill-rule:nonzero;fill:rgb(32.939148%,32.939148%,32.939148%);fill-opacity:1;" d="M 185.113281 181.90625 C 183.78125 182.042969 182.417969 181.980469 181.105469 181.695312 C 179.640625 181.378906 178.277344 180.695312 176.789062 180.472656 C 175.960938 180.347656 175.105469 180.320312 174.289062 180.558594 C 173.523438 180.777344 172.597656 181.261719 172.367188 182.089844 C 172.015625 183.367188 173.417969 184.011719 174.308594 184.550781 C 175.871094 185.5 177.4375 186.433594 179.003906 187.363281 C 180.121094 188.027344 181.136719 186.296875 180.023438 185.636719 C 178.710938 184.855469 177.402344 184.074219 176.097656 183.289062 C 175.695312 183.046875 175.296875 182.804688 174.894531 182.5625 C 174.75 182.472656 174.605469 182.382812 174.460938 182.292969 C 174.414062 182.265625 174.359375 182.214844 174.304688 182.199219 C 174.101562 182.140625 174.386719 182.023438 174.351562 182.355469 C 174.304688 182.523438 174.257812 182.691406 174.214844 182.859375 C 174.324219 182.613281 174.84375 182.453125 175.230469 182.398438 C 175.726562 182.332031 176.246094 182.386719 176.734375 182.488281 C 177.761719 182.699219 178.734375 183.117188 179.738281 183.414062 C 181.460938 183.917969 183.332031 184.09375 185.113281 183.90625 C 185.65625 183.851562 186.125 183.488281 186.125 182.90625 C 186.125 182.410156 185.660156 181.847656 185.113281 181.90625 "/>
<path style=" stroke:none;fill-rule:nonzero;fill:rgb(32.939148%,32.939148%,32.939148%);fill-opacity:1;" d="M 186.386719 192.523438 C 189.769531 195.042969 193.40625 197.21875 197.226562 199.019531 C 199.1875 199.945312 201.199219 200.777344 203.242188 201.511719 C 205.339844 202.265625 207.484375 203.003906 209.710938 203.238281 C 211.65625 203.441406 213.789062 203.132812 215.414062 201.988281 C 216.207031 201.429688 216.851562 200.722656 217.238281 199.832031 C 217.671875 198.835938 217.679688 197.78125 217.535156 196.726562 C 217.136719 193.851562 215.671875 191.382812 213.527344 189.441406 C 210.347656 186.5625 206.449219 184.464844 202.542969 182.734375 C 202.042969 182.515625 201.457031 182.59375 201.160156 183.09375 C 200.910156 183.519531 201.023438 184.242188 201.523438 184.464844 C 204.828125 185.929688 208.125 187.644531 210.964844 189.894531 C 213.09375 191.585938 214.765625 193.433594 215.394531 196.136719 C 215.699219 197.445312 215.816406 198.890625 214.789062 199.914062 C 213.570312 201.125 211.695312 201.386719 210.050781 201.265625 C 208.042969 201.113281 206.066406 200.386719 204.179688 199.722656 C 202.328125 199.070312 200.503906 198.335938 198.722656 197.511719 C 194.726562 195.667969 190.929688 193.417969 187.40625 190.792969 C 186.96875 190.46875 186.277344 190.722656 186.027344 191.152344 C 185.722656 191.664062 185.949219 192.195312 186.386719 192.523438 "/>
<path style=" stroke:none;fill-rule:nonzero;fill:rgb(32.939148%,32.939148%,32.939148%);fill-opacity:1;" d="M 210.074219 194.351562 C 205.660156 189.308594 198.511719 188.21875 192.222656 187.308594 C 191.683594 187.230469 191.136719 187.4375 190.980469 188.007812 C 190.851562 188.476562 191.144531 189.160156 191.683594 189.238281 C 197.613281 190.097656 204.476562 191.003906 208.644531 195.769531 C 209.5 196.742188 210.921875 195.320312 210.074219 194.351562 "/>
<path style=" stroke:none;fill-rule:nonzero;fill:rgb(32.939148%,32.939148%,32.939148%);fill-opacity:1;" d="M 162.847656 188.074219 C 165.355469 185.25 167.300781 182.027344 168.621094 178.496094 C 169.996094 174.804688 170.640625 170.914062 171.1875 167.03125 C 171.425781 165.355469 171.605469 163.675781 171.839844 162 C 171.984375 161 172.167969 160.035156 172.613281 159.316406 C 172.847656 158.941406 173.0625 158.71875 173.445312 158.339844 C 173.804688 157.984375 174.246094 157.578125 174.601562 157.308594 C 175.6875 156.496094 176.945312 155.941406 178.214844 155.472656 C 181.214844 154.367188 185.503906 153.785156 185.878906 149.90625 C 185.929688 149.367188 185.378906 148.902344 184.871094 148.902344 C 184.28125 148.902344 183.914062 149.363281 183.863281 149.90625 C 183.746094 151.101562 182.691406 151.757812 181.667969 152.183594 C 180.285156 152.757812 178.808594 153.113281 177.40625 153.644531 C 175.023438 154.546875 172.746094 155.8125 171.179688 157.867188 C 169.722656 159.777344 169.773438 162.496094 169.480469 164.765625 C 168.996094 168.550781 168.445312 172.371094 167.328125 176.03125 C 166.128906 179.957031 164.15625 183.582031 161.421875 186.660156 C 160.566406 187.625 161.988281 189.046875 162.847656 188.074219 "/>
<path style=" stroke:none;fill-rule:nonzero;fill:rgb(32.939148%,32.939148%,32.939148%);fill-opacity:1;" d="M 195.304688 161.84375 C 195.617188 168.890625 197.257812 175.785156 200.054688 182.261719 C 200.269531 182.761719 201.007812 182.871094 201.4375 182.621094 C 201.953125 182.320312 202.011719 181.75 201.796875 181.253906 C 199.148438 175.117188 197.621094 168.511719 197.324219 161.84375 C 197.265625 160.558594 195.25 160.550781 195.304688 161.84375 "/>
<path style=" stroke:none;fill-rule:nonzero;fill:rgb(32.939148%,32.939148%,32.939148%);fill-opacity:1;" d="M 181.265625 155.210938 C 184.949219 157.402344 189.816406 157.269531 193.296875 154.722656 C 193.734375 154.402344 193.953125 153.855469 193.65625 153.351562 C 193.40625 152.925781 192.71875 152.671875 192.277344 152.992188 C 189.351562 155.132812 185.40625 155.335938 182.285156 153.480469 C 181.167969 152.816406 180.152344 154.546875 181.265625 155.210938 "/>
<path style=" stroke:none;fill-rule:nonzero;fill:rgb(32.939148%,32.939148%,32.939148%);fill-opacity:1;" d="M 170.453125 182.714844 C 171.453125 183.179688 172.515625 183.417969 173.625 183.355469 C 174.914062 183.28125 174.925781 181.28125 173.625 181.351562 C 172.882812 181.394531 172.152344 181.300781 171.472656 180.984375 C 170.976562 180.753906 170.382812 180.847656 170.089844 181.34375 C 169.835938 181.777344 169.957031 182.484375 170.453125 182.714844 "/>
<path style=" stroke:none;fill-rule:nonzero;fill:rgb(32.939148%,32.939148%,32.939148%);fill-opacity:1;" d="M 186.402344 190.757812 C 185.628906 189.035156 184.496094 187.496094 183.117188 186.203125 C 182.175781 185.316406 180.746094 186.730469 181.691406 187.621094 C 182.957031 188.808594 183.949219 190.1875 184.660156 191.765625 C 184.882812 192.261719 185.605469 192.378906 186.039062 192.125 C 186.554688 191.828125 186.625 191.253906 186.402344 190.757812 "/>
<path style=" stroke:none;fill-rule:nonzero;fill:rgb(32.939148%,32.939148%,32.939148%);fill-opacity:1;" d="M 179.097656 182.316406 C 183.464844 180.023438 186.332031 175.40625 186.519531 170.523438 C 186.566406 169.234375 184.550781 169.234375 184.5 170.523438 C 184.339844 174.726562 181.816406 178.625 178.078125 180.585938 C 176.933594 181.1875 177.949219 182.917969 179.097656 182.316406 "/>
<path style=" stroke:none;fill-rule:nonzero;fill:rgb(32.939148%,32.939148%,32.939148%);fill-opacity:1;" d="M 188.28125 182.980469 C 190.546875 182.035156 192.421875 180.5 193.734375 178.429688 C 194.425781 177.332031 192.679688 176.328125 191.992188 177.417969 C 190.984375 179.011719 189.496094 180.316406 187.746094 181.046875 C 187.242188 181.257812 186.882812 181.710938 187.039062 182.28125 C 187.167969 182.75 187.777344 183.191406 188.28125 182.980469 "/>
<g clip-path="url(#clip3)" clip-rule="nonzero">
<path style=" stroke:none;fill-rule:nonzero;fill:rgb(32.939148%,32.939148%,32.939148%);fill-opacity:1;" d="M 150.703125 180.398438 C 151.28125 177.328125 153.265625 174.855469 155.160156 172.460938 C 157.140625 169.960938 159.171875 167.371094 159.886719 164.199219 C 159.273438 164.277344 158.660156 164.359375 158.042969 164.4375 C 159.785156 167.773438 160.882812 171.832031 159.277344 175.433594 C 158.574219 177.011719 157.375 178.375 155.761719 179.0625 C 154.285156 179.691406 152.539062 179.765625 151.085938 179.03125 C 149.933594 178.445312 148.910156 180.175781 150.070312 180.761719 C 153.09375 182.292969 156.859375 181.476562 159.203125 179.09375 C 161.699219 176.550781 162.414062 172.847656 161.894531 169.425781 C 161.570312 167.320312 160.769531 165.3125 159.785156 163.425781 C 159.394531 162.675781 158.128906 162.839844 157.941406 163.667969 C 157.253906 166.714844 155.214844 169.167969 153.316406 171.570312 C 151.351562 174.058594 149.355469 176.679688 148.757812 179.863281 C 148.65625 180.394531 148.90625 180.945312 149.460938 181.097656 C 149.953125 181.230469 150.601562 180.933594 150.703125 180.398438 "/>
</g>
<g clip-path="url(#clip4)" clip-rule="nonzero">
<path style=" stroke:none;fill-rule:nonzero;fill:rgb(32.939148%,32.939148%,32.939148%);fill-opacity:1;" d="M 150.761719 179.785156 C 151.054688 173.730469 151.734375 167.703125 152.808594 161.734375 C 152.316406 161.933594 151.820312 162.136719 151.328125 162.335938 C 153.632812 163.867188 155.132812 166.480469 155.285156 169.230469 C 155.359375 170.511719 157.375 170.519531 157.304688 169.230469 C 157.109375 165.738281 155.269531 162.550781 152.347656 160.605469 C 151.835938 160.265625 150.976562 160.585938 150.863281 161.203125 C 149.757812 167.34375 149.042969 173.554688 148.746094 179.785156 C 148.683594 181.074219 150.703125 181.070312 150.761719 179.785156 "/>
</g>
<path style=" stroke:none;fill-rule:nonzero;fill:rgb(32.939148%,32.939148%,32.939148%);fill-opacity:1;" d="M 178.070312 215.722656 C 178.71875 208.882812 182.894531 202.746094 188.992188 199.53125 C 190.6875 198.636719 192.5 198 194.375 197.59375 C 195.644531 197.320312 195.105469 195.386719 193.839844 195.660156 C 186.429688 197.261719 180.285156 202.519531 177.511719 209.507812 C 176.722656 211.5 176.253906 213.589844 176.050781 215.722656 C 176 216.261719 176.550781 216.722656 177.058594 216.722656 C 177.648438 216.722656 178.015625 216.261719 178.070312 215.722656 "/>
<path style=" stroke:none;fill-rule:nonzero;fill:rgb(32.939148%,32.939148%,32.939148%);fill-opacity:1;" d="M 214.949219 202.929688 C 215.433594 203.078125 215.871094 203.421875 216.148438 203.902344 C 216.417969 204.371094 217.0625 204.53125 217.527344 204.261719 C 218.003906 203.984375 218.160156 203.363281 217.890625 202.890625 C 217.359375 201.972656 216.503906 201.308594 215.488281 200.996094 C 214.96875 200.835938 214.386719 201.1875 214.246094 201.695312 C 214.097656 202.234375 214.429688 202.765625 214.949219 202.929688 "/>
<path style=" stroke:none;fill-rule:nonzero;fill:rgb(32.939148%,32.939148%,32.939148%);fill-opacity:1;" d="M 186.464844 216.894531 C 187.558594 213.464844 189.945312 210.496094 193.035156 208.621094 C 196.304688 206.640625 200.253906 206.03125 203.988281 206.863281 C 206.152344 207.347656 208.230469 208.265625 209.976562 209.628906 C 210.40625 209.964844 210.984375 210.046875 211.402344 209.628906 C 211.753906 209.285156 211.835938 208.550781 211.402344 208.214844 C 207.890625 205.476562 203.367188 204.109375 198.90625 204.59375 C 194.664062 205.050781 190.726562 207.109375 187.9375 210.320312 C 186.394531 212.089844 185.230469 214.132812 184.515625 216.363281 C 184.125 217.59375 186.070312 218.121094 186.464844 216.894531 "/>
<path style=" stroke:none;fill-rule:nonzero;fill:rgb(32.939148%,32.939148%,32.939148%);fill-opacity:1;" d="M 151.683594 189.273438 C 154.410156 188.28125 157.335938 188.027344 160.183594 188.609375 C 161.449219 188.867188 161.992188 186.9375 160.71875 186.675781 C 157.527344 186.023438 154.214844 186.226562 151.148438 187.34375 C 149.9375 187.78125 150.460938 189.71875 151.683594 189.273438 "/>
<path style=" stroke:none;fill-rule:nonzero;fill:rgb(32.939148%,32.939148%,32.939148%);fill-opacity:1;" d="M 176.714844 198.164062 C 178.464844 200.089844 179.691406 202.40625 180.328125 204.925781 C 180.648438 206.171875 182.59375 205.644531 182.273438 204.390625 C 181.550781 201.539062 180.121094 198.929688 178.140625 196.746094 C 177.269531 195.789062 175.84375 197.207031 176.714844 198.164062 "/>
<path style=" stroke:none;fill-rule:nonzero;fill:rgb(32.939148%,32.939148%,32.939148%);fill-opacity:1;" d="M 155.363281 197.984375 C 156.019531 197.6875 156.773438 197.597656 157.480469 197.722656 C 158.015625 197.820312 158.570312 197.578125 158.722656 197.023438 C 158.855469 196.539062 158.558594 195.886719 158.019531 195.792969 C 156.730469 195.5625 155.535156 195.71875 154.347656 196.253906 C 153.851562 196.480469 153.730469 197.191406 153.984375 197.625 C 154.28125 198.132812 154.867188 198.210938 155.363281 197.984375 "/>
<path style=" stroke:none;fill-rule:nonzero;fill:rgb(32.939148%,32.939148%,32.939148%);fill-opacity:1;" d="M 168.214844 201.761719 C 171.378906 204.59375 172.496094 209.191406 171.019531 213.148438 C 170.828125 213.65625 171.230469 214.246094 171.722656 214.378906 C 172.285156 214.535156 172.773438 214.191406 172.964844 213.679688 C 174.671875 209.101562 173.292969 203.613281 169.644531 200.347656 C 168.679688 199.484375 167.25 200.898438 168.214844 201.761719 "/>
<path style=" stroke:none;fill-rule:nonzero;fill:rgb(32.939148%,32.939148%,32.939148%);fill-opacity:1;" d="M 212.738281 188.792969 C 215.792969 185.273438 220.261719 183.15625 224.949219 183.089844 C 226.246094 183.070312 226.25 181.070312 224.949219 181.085938 C 219.761719 181.160156 214.699219 183.46875 211.3125 187.375 C 210.46875 188.347656 211.890625 189.769531 212.738281 188.792969 "/>
<path style=" stroke:none;fill-rule:nonzero;fill:rgb(32.939148%,32.939148%,32.939148%);fill-opacity:1;" d="M 217.507812 194.40625 C 218.925781 192.800781 221.128906 192.058594 223.230469 192.582031 C 224.492188 192.894531 225.03125 190.960938 223.769531 190.648438 C 221.003906 189.960938 217.964844 190.851562 216.078125 192.988281 C 215.226562 193.957031 216.648438 195.378906 217.507812 194.40625 "/>
<g clip-path="url(#clip5)" clip-rule="nonzero">
<path style=" stroke:none;fill-rule:nonzero;fill:rgb(32.939148%,32.939148%,32.939148%);fill-opacity:1;" d="M 225.132812 178.679688 C 221.582031 178.792969 217.574219 178.46875 215.050781 175.664062 C 212.222656 172.523438 212.25 167.914062 212.246094 163.960938 C 211.738281 164.25 211.230469 164.539062 210.726562 164.824219 C 213.957031 167.097656 217.960938 168.195312 220.96875 170.785156 C 223.71875 173.148438 224.613281 177.019531 224.480469 180.503906 C 224.429688 181.792969 226.449219 181.792969 226.496094 180.503906 C 226.613281 177.46875 225.980469 174.167969 224.324219 171.574219 C 222.570312 168.828125 219.519531 167.269531 216.675781 165.859375 C 214.988281 165.019531 213.292969 164.183594 211.746094 163.097656 C 211.105469 162.644531 210.226562 163.25 210.226562 163.960938 C 210.230469 167.625 210.304688 171.402344 212.011719 174.738281 C 213.539062 177.722656 216.300781 179.609375 219.566406 180.289062 C 221.394531 180.671875 223.273438 180.742188 225.132812 180.683594 C 226.429688 180.640625 226.433594 178.636719 225.132812 178.679688 "/>
</g>
<path style=" stroke:none;fill-rule:nonzero;fill:rgb(32.939148%,32.939148%,32.939148%);fill-opacity:1;" d="M 224.425781 179.832031 C 221.027344 179.988281 217.425781 180.050781 214.234375 178.699219 C 212.964844 178.164062 211.777344 177.394531 210.804688 176.417969 C 210.355469 175.964844 209.960938 175.472656 209.628906 174.929688 C 209.457031 174.652344 209.292969 174.359375 209.164062 174.058594 C 209.101562 173.914062 209.042969 173.765625 208.992188 173.617188 C 208.925781 173.421875 208.960938 173.082031 208.804688 173.355469 C 208.683594 173.476562 208.5625 173.597656 208.445312 173.714844 C 208.28125 173.703125 208.292969 173.699219 208.480469 173.703125 C 208.632812 173.703125 208.785156 173.707031 208.9375 173.707031 C 209.242188 173.710938 209.546875 173.714844 209.855469 173.71875 C 210.464844 173.726562 211.078125 173.734375 211.6875 173.742188 C 212.988281 173.757812 212.988281 171.753906 211.6875 171.738281 C 210.695312 171.726562 209.703125 171.710938 208.707031 171.703125 C 207.769531 171.695312 206.84375 172.066406 206.828125 173.144531 C 206.816406 173.898438 207.25 174.757812 207.589844 175.417969 C 207.945312 176.105469 208.402344 176.738281 208.90625 177.324219 C 211.144531 179.917969 214.480469 181.222656 217.816406 181.671875 C 220.011719 181.964844 222.21875 181.9375 224.425781 181.835938 C 225.71875 181.777344 225.726562 179.773438 224.425781 179.832031 "/>
<path style=" stroke:none;fill-rule:nonzero;fill:rgb(32.939148%,32.939148%,32.939148%);fill-opacity:1;" d="M 158.105469 160.582031 C 159.40625 160.582031 159.40625 158.578125 158.105469 158.578125 C 156.808594 158.578125 156.804688 160.582031 158.105469 160.582031 "/>
<path style=" stroke:none;fill-rule:nonzero;fill:rgb(32.939148%,32.939148%,32.939148%);fill-opacity:1;" d="M 207.292969 168.273438 C 207.351562 168.273438 207.410156 168.273438 207.472656 168.273438 C 207.730469 168.273438 208.003906 168.160156 208.183594 167.980469 C 208.285156 167.886719 208.351562 167.78125 208.394531 167.65625 C 208.457031 167.535156 208.484375 167.410156 208.480469 167.269531 C 208.46875 167.011719 208.382812 166.742188 208.183594 166.5625 C 207.988281 166.382812 207.746094 166.269531 207.472656 166.269531 C 207.410156 166.269531 207.351562 166.269531 207.292969 166.269531 C 207.03125 166.269531 206.761719 166.382812 206.578125 166.5625 C 206.480469 166.652344 206.410156 166.761719 206.371094 166.882812 C 206.304688 167.003906 206.277344 167.132812 206.28125 167.269531 C 206.292969 167.53125 206.378906 167.796875 206.578125 167.980469 C 206.773438 168.160156 207.019531 168.273438 207.292969 168.273438 "/>
<path style=" stroke:none;fill-rule:nonzero;fill:rgb(32.939148%,32.939148%,32.939148%);fill-opacity:1;" d="M 154.503906 184.902344 C 155.800781 184.902344 155.804688 182.902344 154.503906 182.902344 C 153.203125 182.902344 153.203125 184.902344 154.503906 184.902344 "/>
<path style=" stroke:none;fill-rule:nonzero;fill:rgb(32.939148%,32.939148%,32.939148%);fill-opacity:1;" d="M 212.335938 183.117188 C 213.632812 183.117188 213.636719 181.113281 212.335938 181.113281 C 211.039062 181.113281 211.035156 183.117188 212.335938 183.117188 "/>
<path style=" stroke:none;fill-rule:nonzero;fill:rgb(32.939148%,32.939148%,32.939148%);fill-opacity:1;" d="M 162.207031 181.148438 C 163.503906 181.148438 163.507812 179.144531 162.207031 179.144531 C 160.90625 179.144531 160.90625 181.148438 162.207031 181.148438 "/>
<path style=" stroke:none;fill-rule:nonzero;fill:rgb(32.939148%,32.939148%,32.939148%);fill-opacity:1;" d="M 165.328125 171.273438 C 165.25 171.273438 165.167969 171.273438 165.089844 171.273438 C 164.828125 171.273438 164.558594 171.386719 164.375 171.566406 C 164.277344 171.660156 164.207031 171.765625 164.167969 171.890625 C 164.101562 172.011719 164.074219 172.140625 164.078125 172.277344 C 164.089844 172.535156 164.175781 172.804688 164.375 172.984375 C 164.574219 173.164062 164.816406 173.277344 165.089844 173.277344 C 165.167969 173.277344 165.25 173.277344 165.328125 173.277344 C 165.585938 173.277344 165.859375 173.167969 166.042969 172.984375 C 166.140625 172.894531 166.210938 172.785156 166.25 172.664062 C 166.3125 172.542969 166.34375 172.414062 166.339844 172.277344 C 166.328125 172.015625 166.242188 171.75 166.042969 171.566406 C 165.84375 171.386719 165.601562 171.273438 165.328125 171.273438 "/>
<path style=" stroke:none;fill-rule:nonzero;fill:rgb(32.939148%,32.939148%,32.939148%);fill-opacity:1;" d="M 164.367188 165.410156 C 165.667969 165.410156 165.667969 163.40625 164.367188 163.40625 C 163.070312 163.40625 163.066406 165.410156 164.367188 165.410156 "/>
<path style=" stroke:none;fill-rule:nonzero;fill:rgb(32.939148%,32.939148%,32.939148%);fill-opacity:1;" d="M 208.332031 158.160156 C 208.25 158.160156 208.171875 158.160156 208.089844 158.160156 C 207.832031 158.160156 207.558594 158.273438 207.378906 158.453125 C 207.277344 158.542969 207.210938 158.652344 207.167969 158.777344 C 207.105469 158.894531 207.078125 159.023438 207.082031 159.160156 C 207.09375 159.421875 207.179688 159.6875 207.378906 159.871094 C 207.574219 160.050781 207.816406 160.164062 208.089844 160.164062 C 208.171875 160.164062 208.25 160.164062 208.332031 160.164062 C 208.589844 160.164062 208.859375 160.050781 209.042969 159.871094 C 209.140625 159.777344 209.210938 159.671875 209.253906 159.546875 C 209.316406 159.429688 209.34375 159.300781 209.339844 159.160156 C 209.328125 158.902344 209.242188 158.632812 209.042969 158.453125 C 208.847656 158.273438 208.605469 158.160156 208.332031 158.160156 "/>
</g>
</svg>
